<svg xmlns="http://www.w3.org/2000/svg" viewBox="0 0 32 32">
  <rect width="32" height="32" fill="#F0E9DA"/>
  <g fill-rule="evenodd">
    <path d="M 8 4 L 22 4 L 22 16 L 14 16 L 14 28 L 8 28 Z M 14 8 L 18 8 L 18 12 L 14 12 Z" transform="translate(2 2)" fill="#D42B2B"/>
    <path d="M 8 4 L 22 4 L 22 16 L 14 16 L 14 28 L 8 28 Z M 14 8 L 18 8 L 18 12 L 14 12 Z" transform="translate(-1 -1)" fill="#1B8C5A"/>
    <path d="M 8 4 L 22 4 L 22 16 L 14 16 L 14 28 L 8 28 Z M 14 8 L 18 8 L 18 12 L 14 12 Z" fill="#1A1510"/>
  </g>
</svg>
